<mxfile host="app.diagrams.net" agent="Mozilla/5.0 (Windows NT 10.0; Win64; x64) AppleWebKit/537.36 (KHTML, like Gecko) Chrome/134.0.0.0 Safari/537.36" version="26.2.8">
  <diagram name="第 1 页" id="3Pe5uoRuJNRRRWUP85e4">
    <mxGraphModel dx="1044" dy="562" grid="1" gridSize="10" guides="1" tooltips="1" connect="1" arrows="1" fold="1" page="1" pageScale="1" pageWidth="827" pageHeight="1169" math="0" shadow="0">
      <root>
        <mxCell id="0" />
        <mxCell id="1" parent="0" />
        <mxCell id="QSZexS-56xYofMdv2buK-1" value="&lt;font style=&quot;font-size: 18px;&quot;&gt;评价操作票&lt;/font&gt;" style="swimlane;html=1;childLayout=stackLayout;startSize=20;rounded=0;shadow=0;labelBackgroundColor=none;strokeWidth=1;fontFamily=Verdana;fontSize=8;align=center;" vertex="1" parent="1">
          <mxGeometry x="70" y="40" width="640" height="760" as="geometry" />
        </mxCell>
        <mxCell id="QSZexS-56xYofMdv2buK-2" value="接收请求" style="swimlane;html=1;startSize=20;" vertex="1" parent="QSZexS-56xYofMdv2buK-1">
          <mxGeometry y="20" width="160" height="740" as="geometry">
            <mxRectangle y="20" width="40" height="730" as="alternateBounds" />
          </mxGeometry>
        </mxCell>
        <mxCell id="QSZexS-56xYofMdv2buK-3" value="&lt;font style=&quot;font-size: 12px;&quot;&gt;开始&lt;/font&gt;" style="rounded=1;whiteSpace=wrap;html=1;shadow=0;labelBackgroundColor=none;strokeWidth=1;fontFamily=Verdana;fontSize=8;align=center;" vertex="1" parent="QSZexS-56xYofMdv2buK-2">
          <mxGeometry x="20" y="65" width="100" height="60" as="geometry" />
        </mxCell>
        <mxCell id="QSZexS-56xYofMdv2buK-4" value="获取用户信息" style="swimlane;html=1;startSize=20;" vertex="1" parent="QSZexS-56xYofMdv2buK-1">
          <mxGeometry x="160" y="20" width="160" height="740" as="geometry" />
        </mxCell>
        <mxCell id="QSZexS-56xYofMdv2buK-5" style="edgeStyle=orthogonalEdgeStyle;rounded=0;orthogonalLoop=1;jettySize=auto;html=1;exitX=0.5;exitY=1;exitDx=0;exitDy=0;entryX=0.5;entryY=0;entryDx=0;entryDy=0;" edge="1" parent="QSZexS-56xYofMdv2buK-4" target="QSZexS-56xYofMdv2buK-38">
          <mxGeometry relative="1" as="geometry">
            <mxPoint x="80" y="325" as="sourcePoint" />
            <mxPoint x="240" y="170" as="targetPoint" />
            <Array as="points">
              <mxPoint x="80" y="370" />
              <mxPoint x="150" y="370" />
              <mxPoint x="150" y="120" />
              <mxPoint x="240" y="120" />
            </Array>
          </mxGeometry>
        </mxCell>
        <mxCell id="QSZexS-56xYofMdv2buK-6" value="&lt;span style=&quot;font-size: 12px;&quot;&gt;调用yj-pms-authorith接口获取用户信息&lt;/span&gt;" style="whiteSpace=wrap;html=1;fontSize=8;fontFamily=Verdana;rounded=0;shadow=0;labelBackgroundColor=none;strokeWidth=1;" vertex="1" parent="QSZexS-56xYofMdv2buK-4">
          <mxGeometry x="30" y="270" width="100" height="60" as="geometry" />
        </mxCell>
        <mxCell id="QSZexS-56xYofMdv2buK-7" style="edgeStyle=orthogonalEdgeStyle;rounded=0;orthogonalLoop=1;jettySize=auto;html=1;exitX=0.5;exitY=1;exitDx=0;exitDy=0;" edge="1" parent="QSZexS-56xYofMdv2buK-4" source="QSZexS-56xYofMdv2buK-8" target="QSZexS-56xYofMdv2buK-6">
          <mxGeometry relative="1" as="geometry" />
        </mxCell>
        <mxCell id="QSZexS-56xYofMdv2buK-8" value="&lt;span style=&quot;font-size: 12px;&quot;&gt;从请求头中获取userId&lt;/span&gt;" style="whiteSpace=wrap;html=1;fontSize=8;fontFamily=Verdana;rounded=0;shadow=0;labelBackgroundColor=none;strokeWidth=1;" vertex="1" parent="QSZexS-56xYofMdv2buK-4">
          <mxGeometry x="30" y="170" width="100" height="60" as="geometry" />
        </mxCell>
        <mxCell id="QSZexS-56xYofMdv2buK-9" value="保存操作票评价" style="swimlane;html=1;startSize=20;" vertex="1" parent="QSZexS-56xYofMdv2buK-1">
          <mxGeometry x="320" y="20" width="160" height="740" as="geometry" />
        </mxCell>
        <mxCell id="QSZexS-56xYofMdv2buK-10" style="edgeStyle=orthogonalEdgeStyle;rounded=0;orthogonalLoop=1;jettySize=auto;html=1;exitX=0.5;exitY=1;exitDx=0;exitDy=0;entryX=0.5;entryY=0;entryDx=0;entryDy=0;" edge="1" parent="QSZexS-56xYofMdv2buK-9">
          <mxGeometry relative="1" as="geometry">
            <mxPoint x="80" y="317.5" as="sourcePoint" />
          </mxGeometry>
        </mxCell>
        <mxCell id="QSZexS-56xYofMdv2buK-11" style="edgeStyle=orthogonalEdgeStyle;rounded=0;orthogonalLoop=1;jettySize=auto;html=1;exitX=0.5;exitY=1;exitDx=0;exitDy=0;entryX=0.5;entryY=0;entryDx=0;entryDy=0;" edge="1" parent="QSZexS-56xYofMdv2buK-9">
          <mxGeometry relative="1" as="geometry">
            <mxPoint x="80" y="420" as="sourcePoint" />
          </mxGeometry>
        </mxCell>
        <mxCell id="QSZexS-56xYofMdv2buK-12" style="edgeStyle=orthogonalEdgeStyle;rounded=0;orthogonalLoop=1;jettySize=auto;html=1;exitX=0.5;exitY=1;exitDx=0;exitDy=0;entryX=0.5;entryY=0;entryDx=0;entryDy=0;" edge="1" parent="QSZexS-56xYofMdv2buK-9">
          <mxGeometry relative="1" as="geometry">
            <mxPoint x="80" y="520" as="sourcePoint" />
          </mxGeometry>
        </mxCell>
        <mxCell id="QSZexS-56xYofMdv2buK-15" style="edgeStyle=orthogonalEdgeStyle;rounded=0;orthogonalLoop=1;jettySize=auto;html=1;exitX=0.5;exitY=1;exitDx=0;exitDy=0;entryX=0.5;entryY=0;entryDx=0;entryDy=0;" edge="1" parent="QSZexS-56xYofMdv2buK-9" source="QSZexS-56xYofMdv2buK-16" target="QSZexS-56xYofMdv2buK-17">
          <mxGeometry relative="1" as="geometry" />
        </mxCell>
        <mxCell id="QSZexS-56xYofMdv2buK-16" value="&lt;span style=&quot;font-size: 12px;&quot;&gt;新增操作票评价&lt;/span&gt;" style="whiteSpace=wrap;html=1;fontSize=8;fontFamily=Verdana;rounded=0;shadow=0;labelBackgroundColor=none;strokeWidth=1;" vertex="1" parent="QSZexS-56xYofMdv2buK-9">
          <mxGeometry x="30" y="280" width="100" height="60" as="geometry" />
        </mxCell>
        <mxCell id="QSZexS-56xYofMdv2buK-17" value="&lt;span style=&quot;font-size: 12px;&quot;&gt;新增操作票评价明细&lt;/span&gt;" style="whiteSpace=wrap;html=1;fontSize=8;fontFamily=Verdana;rounded=0;shadow=0;labelBackgroundColor=none;strokeWidth=1;" vertex="1" parent="QSZexS-56xYofMdv2buK-9">
          <mxGeometry x="30" y="380" width="100" height="60" as="geometry" />
        </mxCell>
        <mxCell id="QSZexS-56xYofMdv2buK-42" style="edgeStyle=orthogonalEdgeStyle;rounded=0;orthogonalLoop=1;jettySize=auto;html=1;exitX=0.5;exitY=1;exitDx=0;exitDy=0;entryX=0.5;entryY=0;entryDx=0;entryDy=0;" edge="1" parent="QSZexS-56xYofMdv2buK-9" source="QSZexS-56xYofMdv2buK-18" target="QSZexS-56xYofMdv2buK-40">
          <mxGeometry relative="1" as="geometry" />
        </mxCell>
        <mxCell id="QSZexS-56xYofMdv2buK-18" value="&lt;span style=&quot;font-size: 12px;&quot;&gt;更新操作票评价&lt;/span&gt;" style="whiteSpace=wrap;html=1;fontSize=8;fontFamily=Verdana;rounded=0;shadow=0;labelBackgroundColor=none;strokeWidth=1;" vertex="1" parent="QSZexS-56xYofMdv2buK-9">
          <mxGeometry x="30" y="480" width="100" height="60" as="geometry" />
        </mxCell>
        <mxCell id="QSZexS-56xYofMdv2buK-39" style="edgeStyle=orthogonalEdgeStyle;rounded=0;orthogonalLoop=1;jettySize=auto;html=1;exitX=0.5;exitY=1;exitDx=0;exitDy=0;entryX=0.5;entryY=0;entryDx=0;entryDy=0;" edge="1" parent="QSZexS-56xYofMdv2buK-9" source="QSZexS-56xYofMdv2buK-38" target="QSZexS-56xYofMdv2buK-16">
          <mxGeometry relative="1" as="geometry" />
        </mxCell>
        <mxCell id="QSZexS-56xYofMdv2buK-45" value="新增" style="edgeLabel;html=1;align=center;verticalAlign=middle;resizable=0;points=[];" vertex="1" connectable="0" parent="QSZexS-56xYofMdv2buK-39">
          <mxGeometry x="-0.1733" y="-4" relative="1" as="geometry">
            <mxPoint as="offset" />
          </mxGeometry>
        </mxCell>
        <mxCell id="QSZexS-56xYofMdv2buK-43" style="edgeStyle=orthogonalEdgeStyle;rounded=0;orthogonalLoop=1;jettySize=auto;html=1;exitX=0;exitY=0.5;exitDx=0;exitDy=0;entryX=0.5;entryY=0;entryDx=0;entryDy=0;" edge="1" parent="QSZexS-56xYofMdv2buK-9" source="QSZexS-56xYofMdv2buK-38" target="QSZexS-56xYofMdv2buK-18">
          <mxGeometry relative="1" as="geometry">
            <Array as="points">
              <mxPoint x="10" y="198" />
              <mxPoint x="10" y="460" />
              <mxPoint x="80" y="460" />
            </Array>
          </mxGeometry>
        </mxCell>
        <mxCell id="QSZexS-56xYofMdv2buK-44" value="更新" style="edgeLabel;html=1;align=center;verticalAlign=middle;resizable=0;points=[];" vertex="1" connectable="0" parent="QSZexS-56xYofMdv2buK-43">
          <mxGeometry x="-0.9356" y="1" relative="1" as="geometry">
            <mxPoint y="12" as="offset" />
          </mxGeometry>
        </mxCell>
        <mxCell id="QSZexS-56xYofMdv2buK-38" value="&lt;span style=&quot;font-size: 12px;&quot;&gt;判断是新增还是更新操作票评价&lt;/span&gt;" style="rhombus;whiteSpace=wrap;html=1;rounded=0;shadow=0;labelBackgroundColor=none;strokeWidth=1;fontFamily=Verdana;fontSize=8;align=center;" vertex="1" parent="QSZexS-56xYofMdv2buK-9">
          <mxGeometry x="30" y="160" width="100" height="75" as="geometry" />
        </mxCell>
        <mxCell id="QSZexS-56xYofMdv2buK-40" value="&lt;span style=&quot;font-size: 12px;&quot;&gt;更新操作票评价明细&lt;/span&gt;" style="whiteSpace=wrap;html=1;fontSize=8;fontFamily=Verdana;rounded=0;shadow=0;labelBackgroundColor=none;strokeWidth=1;" vertex="1" parent="QSZexS-56xYofMdv2buK-9">
          <mxGeometry x="30" y="580" width="100" height="60" as="geometry" />
        </mxCell>
        <mxCell id="QSZexS-56xYofMdv2buK-20" value="操作票转典型" style="swimlane;html=1;startSize=20;" vertex="1" parent="QSZexS-56xYofMdv2buK-1">
          <mxGeometry x="480" y="20" width="160" height="740" as="geometry" />
        </mxCell>
        <mxCell id="QSZexS-56xYofMdv2buK-21" style="edgeStyle=orthogonalEdgeStyle;rounded=0;orthogonalLoop=1;jettySize=auto;html=1;exitX=0.5;exitY=1;exitDx=0;exitDy=0;entryX=0.5;entryY=0;entryDx=0;entryDy=0;" edge="1" parent="QSZexS-56xYofMdv2buK-20" source="QSZexS-56xYofMdv2buK-22">
          <mxGeometry relative="1" as="geometry">
            <mxPoint x="80" y="270" as="targetPoint" />
          </mxGeometry>
        </mxCell>
        <mxCell id="QSZexS-56xYofMdv2buK-22" value="&lt;span style=&quot;font-size: 12px;&quot;&gt;遍历操作票评价拼接操作票评价结果、操作票评价人&lt;/span&gt;" style="whiteSpace=wrap;html=1;fontSize=8;fontFamily=Verdana;rounded=0;shadow=0;labelBackgroundColor=none;strokeWidth=1;" vertex="1" parent="QSZexS-56xYofMdv2buK-20">
          <mxGeometry x="30" y="170" width="100" height="60" as="geometry" />
        </mxCell>
        <mxCell id="QSZexS-56xYofMdv2buK-50" style="edgeStyle=orthogonalEdgeStyle;rounded=0;orthogonalLoop=1;jettySize=auto;html=1;exitX=0.5;exitY=1;exitDx=0;exitDy=0;" edge="1" parent="QSZexS-56xYofMdv2buK-20" source="QSZexS-56xYofMdv2buK-48" target="QSZexS-56xYofMdv2buK-49">
          <mxGeometry relative="1" as="geometry" />
        </mxCell>
        <mxCell id="QSZexS-56xYofMdv2buK-51" value="否" style="edgeLabel;html=1;align=center;verticalAlign=middle;resizable=0;points=[];" vertex="1" connectable="0" parent="QSZexS-56xYofMdv2buK-50">
          <mxGeometry x="-0.2711" y="1" relative="1" as="geometry">
            <mxPoint as="offset" />
          </mxGeometry>
        </mxCell>
        <mxCell id="QSZexS-56xYofMdv2buK-54" style="edgeStyle=orthogonalEdgeStyle;rounded=0;orthogonalLoop=1;jettySize=auto;html=1;exitX=0;exitY=0.5;exitDx=0;exitDy=0;entryX=0.5;entryY=0;entryDx=0;entryDy=0;" edge="1" parent="QSZexS-56xYofMdv2buK-20" source="QSZexS-56xYofMdv2buK-48" target="QSZexS-56xYofMdv2buK-52">
          <mxGeometry relative="1" as="geometry" />
        </mxCell>
        <mxCell id="QSZexS-56xYofMdv2buK-55" value="是" style="edgeLabel;html=1;align=center;verticalAlign=middle;resizable=0;points=[];" vertex="1" connectable="0" parent="QSZexS-56xYofMdv2buK-54">
          <mxGeometry x="-0.9503" y="3" relative="1" as="geometry">
            <mxPoint as="offset" />
          </mxGeometry>
        </mxCell>
        <mxCell id="QSZexS-56xYofMdv2buK-48" value="&lt;span style=&quot;font-size: 12px;&quot;&gt;拼接的操作票评价结果是否为空&lt;/span&gt;" style="rhombus;whiteSpace=wrap;html=1;rounded=0;shadow=0;labelBackgroundColor=none;strokeWidth=1;fontFamily=Verdana;fontSize=8;align=center;" vertex="1" parent="QSZexS-56xYofMdv2buK-20">
          <mxGeometry x="30" y="270" width="100" height="75" as="geometry" />
        </mxCell>
        <mxCell id="QSZexS-56xYofMdv2buK-53" style="edgeStyle=orthogonalEdgeStyle;rounded=0;orthogonalLoop=1;jettySize=auto;html=1;exitX=0.5;exitY=1;exitDx=0;exitDy=0;" edge="1" parent="QSZexS-56xYofMdv2buK-20" source="QSZexS-56xYofMdv2buK-49" target="QSZexS-56xYofMdv2buK-52">
          <mxGeometry relative="1" as="geometry" />
        </mxCell>
        <mxCell id="QSZexS-56xYofMdv2buK-49" value="&lt;span style=&quot;font-size: 12px;&quot;&gt;组装请求参数，调用pms-twovotes-wmcenter接口操作票转典型&lt;/span&gt;" style="whiteSpace=wrap;html=1;fontSize=8;fontFamily=Verdana;rounded=0;shadow=0;labelBackgroundColor=none;strokeWidth=1;" vertex="1" parent="QSZexS-56xYofMdv2buK-20">
          <mxGeometry x="30" y="390" width="100" height="60" as="geometry" />
        </mxCell>
        <mxCell id="QSZexS-56xYofMdv2buK-52" value="&lt;span style=&quot;font-size: 12px;&quot;&gt;成功返回&lt;/span&gt;" style="whiteSpace=wrap;html=1;fontSize=8;fontFamily=Verdana;rounded=0;shadow=0;labelBackgroundColor=none;strokeWidth=1;" vertex="1" parent="QSZexS-56xYofMdv2buK-20">
          <mxGeometry x="30" y="660" width="100" height="60" as="geometry" />
        </mxCell>
        <mxCell id="QSZexS-56xYofMdv2buK-28" style="edgeStyle=orthogonalEdgeStyle;rounded=0;orthogonalLoop=1;jettySize=auto;html=1;entryX=0.5;entryY=0;entryDx=0;entryDy=0;exitX=0.5;exitY=1;exitDx=0;exitDy=0;" edge="1" parent="QSZexS-56xYofMdv2buK-1" source="QSZexS-56xYofMdv2buK-3" target="QSZexS-56xYofMdv2buK-8">
          <mxGeometry relative="1" as="geometry">
            <mxPoint x="70" y="240" as="sourcePoint" />
            <mxPoint x="70" y="180" as="targetPoint" />
          </mxGeometry>
        </mxCell>
        <mxCell id="QSZexS-56xYofMdv2buK-46" style="edgeStyle=orthogonalEdgeStyle;rounded=0;orthogonalLoop=1;jettySize=auto;html=1;exitX=0.5;exitY=1;exitDx=0;exitDy=0;entryX=0.5;entryY=0;entryDx=0;entryDy=0;" edge="1" parent="QSZexS-56xYofMdv2buK-1" source="QSZexS-56xYofMdv2buK-40" target="QSZexS-56xYofMdv2buK-22">
          <mxGeometry relative="1" as="geometry">
            <Array as="points">
              <mxPoint x="400" y="700" />
              <mxPoint x="470" y="700" />
              <mxPoint x="470" y="150" />
              <mxPoint x="560" y="150" />
            </Array>
          </mxGeometry>
        </mxCell>
        <mxCell id="QSZexS-56xYofMdv2buK-47" style="edgeStyle=orthogonalEdgeStyle;rounded=0;orthogonalLoop=1;jettySize=auto;html=1;exitX=1;exitY=0.5;exitDx=0;exitDy=0;entryX=0.5;entryY=0;entryDx=0;entryDy=0;" edge="1" parent="QSZexS-56xYofMdv2buK-1" source="QSZexS-56xYofMdv2buK-17" target="QSZexS-56xYofMdv2buK-22">
          <mxGeometry relative="1" as="geometry">
            <Array as="points">
              <mxPoint x="470" y="430" />
              <mxPoint x="470" y="150" />
              <mxPoint x="560" y="150" />
            </Array>
          </mxGeometry>
        </mxCell>
      </root>
    </mxGraphModel>
  </diagram>
</mxfile>
